<svg id="visual" viewBox="0 0 1920 600" width="1920" height="600" xmlns="http://www.w3.org/2000/svg" xmlns:xlink="http://www.w3.org/1999/xlink" version="1.1"><rect x="0" y="0" width="1920" height="600" fill="#001220"></rect><defs><linearGradient id="grad1_0" x1="68.8%" y1="0%" x2="100%" y2="100%"><stop offset="-14.000000000000007%" stop-color="#001220" stop-opacity="1"></stop><stop offset="114.00000000000001%" stop-color="#001220" stop-opacity="1"></stop></linearGradient></defs><defs><linearGradient id="grad2_0" x1="0%" y1="0%" x2="31.3%" y2="100%"><stop offset="-14.000000000000007%" stop-color="#001220" stop-opacity="1"></stop><stop offset="114.00000000000001%" stop-color="#001220" stop-opacity="1"></stop></linearGradient></defs><g transform="translate(1920, 0)"><path d="M0 570C-60.7 531.1 -121.5 492.1 -195.2 471.2C-268.9 450.3 -355.5 447.3 -403.1 403.1C-450.6 358.8 -459.1 273.1 -480.4 199C-501.7 124.9 -535.9 62.5 -570 0L0 0Z" fill="#3578e5"></path></g><g transform="translate(0, 600)"><path d="M0 -570C83.4 -571.2 166.8 -572.4 218.1 -526.6C269.4 -480.8 288.6 -388 329.5 -329.5C370.4 -271 433 -246.7 476.7 -197.5C520.4 -148.3 545.2 -74.1 570 0L0 0Z" fill="#3578e5"></path></g></svg>