<svg id="visual" viewBox="0 0 900 200" width="900" height="200" xmlns="http://www.w3.org/2000/svg" xmlns:xlink="http://www.w3.org/1999/xlink" version="1.1"><path d="M0 65L25 67C50 69 100 73 150 72C200 71 250 65 300 65C350 65 400 71 450 74.7C500 78.3 550 79.7 600 80.7C650 81.7 700 82.3 750 79.7C800 77 850 71 875 68L900 65L900 0L875 0C850 0 800 0 750 0C700 0 650 0 600 0C550 0 500 0 450 0C400 0 350 0 300 0C250 0 200 0 150 0C100 0 50 0 25 0L0 0Z" fill="#465c7e"></path><path d="M0 91L25 93.7C50 96.3 100 101.7 150 101.3C200 101 250 95 300 94.3C350 93.7 400 98.3 450 103.7C500 109 550 115 600 116C650 117 700 113 750 109.3C800 105.7 850 102.3 875 100.7L900 99L900 63L875 66C850 69 800 75 750 77.7C700 80.3 650 79.7 600 78.7C550 77.7 500 76.3 450 72.7C400 69 350 63 300 63C250 63 200 69 150 70C100 71 50 67 25 65L0 63Z" fill="#5d7e9c"></path><path d="M0 125L25 126.3C50 127.7 100 130.3 150 131C200 131.7 250 130.3 300 131.7C350 133 400 137 450 143C500 149 550 157 600 157C650 157 700 149 750 143.7C800 138.3 850 135.7 875 134.3L900 133L900 97L875 98.7C850 100.3 800 103.7 750 107.3C700 111 650 115 600 114C550 113 500 107 450 101.7C400 96.3 350 91.7 300 92.3C250 93 200 99 150 99.3C100 99.7 50 94.3 25 91.7L0 89Z" fill="#7aa2b8"></path><path d="M0 201L25 201C50 201 100 201 150 201C200 201 250 201 300 201C350 201 400 201 450 201C500 201 550 201 600 201C650 201 700 201 750 201C800 201 850 201 875 201L900 201L900 131L875 132.3C850 133.7 800 136.3 750 141.7C700 147 650 155 600 155C550 155 500 147 450 141C400 135 350 131 300 129.7C250 128.3 200 129.7 150 129C100 128.3 50 125.7 25 124.3L0 123Z" fill="#9dc6d4"></path></svg>