<svg id="visual" viewBox="0 0 900 600" width="900" height="600" xmlns="http://www.w3.org/2000/svg" xmlns:xlink="http://www.w3.org/1999/xlink" version="1.1"><rect x="0" y="0" width="900" height="600" fill="#002233"></rect><path d="M0 434L21.5 441C43 448 86 462 128.8 475.2C171.7 488.3 214.3 500.7 257.2 496.8C300 493 343 473 385.8 472.5C428.7 472 471.3 491 514.2 484C557 477 600 444 642.8 441.3C685.7 438.7 728.3 466.3 771.2 475C814 483.7 857 473.3 878.5 468.2L900 463L900 601L878.5 601C857 601 814 601 771.2 601C728.3 601 685.7 601 642.8 601C600 601 557 601 514.2 601C471.3 601 428.7 601 385.8 601C343 601 300 601 257.2 601C214.3 601 171.7 601 128.8 601C86 601 43 601 21.5 601L0 601Z" fill="#0066FF" stroke-linecap="round" stroke-linejoin="miter"></path></svg>