<svg id="visual" viewBox="0 0 900 600" width="900" height="600" xmlns="http://www.w3.org/2000/svg" xmlns:xlink="http://www.w3.org/1999/xlink" version="1.1"><path d="M0 91L13.7 90C27.3 89 54.7 87 82 87C109.3 87 136.7 89 163.8 82C191 75 218 59 245.2 57C272.3 55 299.7 67 327 69C354.3 71 381.7 63 409 63C436.3 63 463.7 71 491 79C518.3 87 545.7 95 573 89C600.3 83 627.7 63 654.8 59C682 55 709 67 736.2 69C763.3 71 790.7 63 818 66C845.3 69 872.7 83 886.3 90L900 97L900 0L886.3 0C872.7 0 845.3 0 818 0C790.7 0 763.3 0 736.2 0C709 0 682 0 654.8 0C627.7 0 600.3 0 573 0C545.7 0 518.3 0 491 0C463.7 0 436.3 0 409 0C381.7 0 354.3 0 327 0C299.7 0 272.3 0 245.2 0C218 0 191 0 163.8 0C136.7 0 109.3 0 82 0C54.7 0 27.3 0 13.7 0L0 0Z" fill="#6198ff"></path><path d="M0 229L13.7 224C27.3 219 54.7 209 82 210C109.3 211 136.7 223 163.8 221C191 219 218 203 245.2 202C272.3 201 299.7 215 327 211C354.3 207 381.7 185 409 178C436.3 171 463.7 179 491 190C518.3 201 545.7 215 573 208C600.3 201 627.7 173 654.8 160C682 147 709 149 736.2 145C763.3 141 790.7 131 818 132C845.3 133 872.7 145 886.3 151L900 157L900 95L886.3 88C872.7 81 845.3 67 818 64C790.7 61 763.3 69 736.2 67C709 65 682 53 654.8 57C627.7 61 600.3 81 573 87C545.7 93 518.3 85 491 77C463.7 69 436.3 61 409 61C381.7 61 354.3 69 327 67C299.7 65 272.3 53 245.2 55C218 57 191 73 163.8 80C136.7 87 109.3 85 82 85C54.7 85 27.3 87 13.7 88L0 89Z" fill="#3c80ff"></path><path d="M0 319L13.7 319C27.3 319 54.7 319 82 319C109.3 319 136.7 319 163.8 333C191 347 218 375 245.2 374C272.3 373 299.7 343 327 324C354.3 305 381.7 297 409 300C436.3 303 463.7 317 491 327C518.3 337 545.7 343 573 355C600.3 367 627.7 385 654.8 371C682 357 709 311 736.2 285C763.3 259 790.7 253 818 276C845.3 299 872.7 351 886.3 377L900 403L900 155L886.3 149C872.7 143 845.3 131 818 130C790.7 129 763.3 139 736.2 143C709 147 682 145 654.8 158C627.7 171 600.3 199 573 206C545.7 213 518.3 199 491 188C463.7 177 436.3 169 409 176C381.7 183 354.3 205 327 209C299.7 213 272.3 199 245.2 200C218 201 191 217 163.8 219C136.7 221 109.3 209 82 208C54.7 207 27.3 217 13.7 222L0 227Z" fill="#0066ff"></path><path d="M0 493L13.7 499C27.3 505 54.7 517 82 526C109.3 535 136.7 541 163.8 538C191 535 218 523 245.2 515C272.3 507 299.7 503 327 497C354.3 491 381.7 483 409 492C436.3 501 463.7 527 491 533C518.3 539 545.7 525 573 526C600.3 527 627.7 543 654.8 540C682 537 709 515 736.2 512C763.3 509 790.7 525 818 526C845.3 527 872.7 513 886.3 506L900 499L900 401L886.3 375C872.7 349 845.3 297 818 274C790.7 251 763.3 257 736.2 283C709 309 682 355 654.8 369C627.7 383 600.3 365 573 353C545.7 341 518.3 335 491 325C463.7 315 436.3 301 409 298C381.7 295 354.3 303 327 322C299.7 341 272.3 371 245.2 372C218 373 191 345 163.8 331C136.7 317 109.3 317 82 317C54.7 317 27.3 317 13.7 317L0 317Z" fill="#0059dd"></path><path d="M0 601L13.7 601C27.3 601 54.7 601 82 601C109.3 601 136.7 601 163.8 601C191 601 218 601 245.2 601C272.3 601 299.7 601 327 601C354.3 601 381.7 601 409 601C436.3 601 463.7 601 491 601C518.3 601 545.7 601 573 601C600.3 601 627.7 601 654.8 601C682 601 709 601 736.2 601C763.3 601 790.7 601 818 601C845.3 601 872.7 601 886.3 601L900 601L900 497L886.3 504C872.7 511 845.3 525 818 524C790.7 523 763.3 507 736.2 510C709 513 682 535 654.8 538C627.7 541 600.3 525 573 524C545.7 523 518.3 537 491 531C463.7 525 436.3 499 409 490C381.7 481 354.3 489 327 495C299.7 501 272.3 505 245.2 513C218 521 191 533 163.8 536C136.7 539 109.3 533 82 524C54.7 515 27.3 503 13.7 497L0 491Z" fill="#004cbb"></path></svg>