<svg id="visual" viewBox="0 0 900 600" width="900" height="600" xmlns="http://www.w3.org/2000/svg" xmlns:xlink="http://www.w3.org/1999/xlink" version="1.1"><path d="M0 169L21.5 175C43 181 86 193 128.8 196C171.7 199 214.3 193 257.2 182C300 171 343 155 385.8 156C428.7 157 471.3 175 514.2 172C557 169 600 145 642.8 136C685.7 127 728.3 133 771.2 137C814 141 857 143 878.5 144L900 145L900 0L878.5 0C857 0 814 0 771.2 0C728.3 0 685.7 0 642.8 0C600 0 557 0 514.2 0C471.3 0 428.7 0 385.8 0C343 0 300 0 257.2 0C214.3 0 171.7 0 128.8 0C86 0 43 0 21.5 0L0 0Z" fill="#6198ff"></path><path d="M0 229L21.5 238C43 247 86 265 128.8 272C171.7 279 214.3 275 257.2 261C300 247 343 223 385.8 222C428.7 221 471.3 243 514.2 244C557 245 600 225 642.8 212C685.7 199 728.3 193 771.2 196C814 199 857 211 878.5 217L900 223L900 143L878.5 142C857 141 814 139 771.2 135C728.3 131 685.7 125 642.8 134C600 143 557 167 514.2 170C471.3 173 428.7 155 385.8 154C343 153 300 169 257.2 180C214.3 191 171.7 197 128.8 194C86 191 43 179 21.5 173L0 167Z" fill="#3c80ff"></path><path d="M0 433L21.5 436C43 439 86 445 128.8 437C171.7 429 214.3 407 257.2 398C300 389 343 393 385.8 398C428.7 403 471.3 409 514.2 411C557 413 600 411 642.8 405C685.7 399 728.3 389 771.2 387C814 385 857 391 878.5 394L900 397L900 221L878.5 215C857 209 814 197 771.2 194C728.3 191 685.7 197 642.8 210C600 223 557 243 514.2 242C471.3 241 428.7 219 385.8 220C343 221 300 245 257.2 259C214.3 273 171.7 277 128.8 270C86 263 43 245 21.5 236L0 227Z" fill="#0066ff"></path><path d="M0 511L21.5 512C43 513 86 515 128.8 511C171.7 507 214.3 497 257.2 489C300 481 343 475 385.8 480C428.7 485 471.3 501 514.2 505C557 509 600 501 642.8 494C685.7 487 728.3 481 771.2 476C814 471 857 467 878.5 465L900 463L900 395L878.5 392C857 389 814 383 771.2 385C728.3 387 685.7 397 642.8 403C600 409 557 411 514.2 409C471.3 407 428.7 401 385.8 396C343 391 300 387 257.2 396C214.3 405 171.7 427 128.8 435C86 443 43 437 21.5 434L0 431Z" fill="#0059dd"></path><path d="M0 601L21.5 601C43 601 86 601 128.8 601C171.7 601 214.3 601 257.2 601C300 601 343 601 385.8 601C428.7 601 471.3 601 514.2 601C557 601 600 601 642.8 601C685.7 601 728.3 601 771.2 601C814 601 857 601 878.5 601L900 601L900 461L878.5 463C857 465 814 469 771.2 474C728.3 479 685.7 485 642.8 492C600 499 557 507 514.2 503C471.3 499 428.7 483 385.8 478C343 473 300 479 257.2 487C214.3 495 171.7 505 128.8 509C86 513 43 511 21.5 510L0 509Z" fill="#004cbb"></path></svg>